<?xml version="1.0" standalone="no"?>
<!DOCTYPE svg PUBLIC "-//W3C//DTD SVG 20010904//EN"
 "http://www.w3.org/TR/2001/REC-SVG-20010904/DTD/svg10.dtd">
<svg version="1.0" xmlns="http://www.w3.org/2000/svg"
 width="1049.000000pt" height="1280.000000pt" viewBox="0 0 1049.000000 1280.000000"
 preserveAspectRatio="xMidYMid meet">
<g transform="translate(0.000000,1280.000000) scale(0.100000,-0.100000)"
fill="#000000" stroke="none">
<path d="M6209 12796 c-2 -2 -83 -9 -179 -16 -1070 -70 -2026 -365 -2925 -903
-638 -382 -1225 -898 -1699 -1492 -295 -369 -521 -723 -730 -1142 -339 -683
-551 -1410 -630 -2163 -56 -527 -54 -871 5 -1405 132 -1186 603 -2320 1355
-3261 1107 -1385 2753 -2258 4494 -2384 85 -6 199 -15 253 -21 126 -12 351
-12 491 1 61 5 179 14 261 20 83 6 220 20 305 31 85 11 189 24 230 29 82 8
438 88 650 145 584 157 1221 441 1750 779 241 153 633 447 647 483 4 10 -3 24
-19 38 -24 20 -39 22 -229 28 -2140 69 -4094 1227 -5199 3082 -779 1308 -1052
2893 -759 4405 269 1386 998 2635 2087 3574 83 72 102 93 102 115 0 51 -24 61
-147 61 -60 0 -112 -2 -114 -4z"/>
</g>
</svg>
